<svg width="1512" height="982" viewBox="0 0 1512 982" fill="none" xmlns="http://www.w3.org/2000/svg">
<g id="logo-stroke">
<g id="leftU">
<path id="Vector" d="M684 558.5C684 585.093 680.275 611.425 673.039 635.993C665.802 660.562 655.195 682.885 641.823 701.689C628.452 720.493 612.577 735.409 595.106 745.586C577.636 755.762 558.91 761 540 761C521.09 761 502.364 755.762 484.894 745.586C467.423 735.409 451.548 720.493 438.177 701.689C424.805 682.885 414.198 660.562 406.961 635.993C399.725 611.425 396 585.093 396 558.5V288.5L540 221L540 513.5C540 540.093 543.725 566.425 550.961 590.993C558.198 615.562 568.805 637.885 582.176 656.689C585.773 661.746 589.55 666.522 593.49 671" stroke="#FD2155" stroke-width="30" stroke-linecap="round" stroke-linejoin="round"/>
</g>
<g id="shadowU">
<path id="Vector_2" d="M690.352 760.324C681.086 752.199 672.487 742.598 664.729 731.689C651.357 712.885 640.75 690.562 633.514 665.993C626.277 641.425 622.552 615.093 622.552 588.5V318.5V290.154" stroke="#FD2155" stroke-width="30" stroke-linecap="round" stroke-linejoin="round"/>
</g>
<g id="rightU">
<path id="Vector_3" d="M897.54 664.362C855.858 628.883 828 564.516 828 491V221L684 288.5L684 558.5C684 670.338 748.471 761 828 761C907.529 761 972 670.338 972 558.5L972 288.5L1116 221V491C1116 590.759 1064.7 673.67 997.178 690.415" stroke="#05FDD8" stroke-width="30" stroke-linecap="round" stroke-linejoin="round"/>
</g>
</g>
</svg>
