<svg width="1512" height="982" viewBox="0 0 1512 982" fill="none" xmlns="http://www.w3.org/2000/svg">
<g id="main-logo">
<g id="WOONG">
<mask id="path-1-outside-1_1_2" maskUnits="userSpaceOnUse" x="353.407" y="237.498" width="801" height="508" fill="black">
<rect fill="white" x="353.407" y="237.498" width="801" height="508"/>
<path d="M607.407 245.16H667.466V266.278H651.353L598.496 430.218H561.143L510.972 268.964L464.707 430.218H427.72L373.765 266.278H357.407V245.16H417.466V266.278H401.353L446.153 408.49L493.394 245.16H529.893L580.186 408.49L625.84 266.278H607.407V245.16Z"/>
<path d="M816.221 433.881C803.444 433.881 791.766 431.52 781.187 426.8C770.607 421.999 761.167 415.204 752.866 406.415C744.566 397.626 738.259 387.209 733.946 375.165C729.632 363.12 727.476 350.629 727.476 337.689C727.476 324.343 729.632 311.81 733.946 300.091C738.34 288.373 744.444 278.2 752.256 269.574C760.15 260.866 769.509 254.03 780.332 249.066C791.237 244.02 803.2 241.498 816.221 241.498C829.323 241.498 841.327 244.02 852.232 249.066C863.137 254.03 872.495 260.866 880.308 269.574C888.12 278.2 894.183 288.373 898.496 300.091C902.809 311.81 904.966 324.343 904.966 337.689C904.966 351.035 902.769 363.568 898.374 375.287C894.061 386.924 887.958 397.097 880.064 405.804C872.251 414.512 862.892 421.389 851.988 426.434C841.164 431.398 829.242 433.881 816.221 433.881ZM816.221 411.175C825.905 411.175 834.654 409.182 842.466 405.194C850.36 401.206 857.074 395.876 862.608 389.203C868.141 382.448 872.414 374.636 875.425 365.765C878.436 356.895 879.942 347.536 879.942 337.689C879.942 327.598 878.273 317.873 874.937 308.514C871.682 299.074 867.084 291.099 861.143 284.589C855.283 278.078 848.447 273.073 840.635 269.574C832.822 265.993 824.684 264.203 816.221 264.203C806.537 264.203 797.748 266.197 789.854 270.184C781.96 274.172 775.246 279.543 769.712 286.298C764.178 292.971 759.906 300.783 756.895 309.735C753.884 318.605 752.378 327.923 752.378 337.689C752.378 349.082 754.046 359.255 757.383 368.207C760.72 377.077 765.114 384.483 770.567 390.423C776.1 396.283 782.652 401.206 790.22 405.194C797.87 409.182 806.537 411.175 816.221 411.175Z"/>
<path d="M1061.29 433.881C1048.51 433.881 1036.83 431.52 1026.26 426.8C1015.68 421.999 1006.24 415.204 997.935 406.415C989.634 397.626 983.327 387.209 979.014 375.165C974.701 363.12 972.544 350.629 972.544 337.689C972.544 324.343 974.701 311.81 979.014 300.091C983.408 288.373 989.512 278.2 997.324 269.574C1005.22 260.866 1014.58 254.03 1025.4 249.066C1036.31 244.02 1048.27 241.498 1061.29 241.498C1074.39 241.498 1086.4 244.02 1097.3 249.066C1108.2 254.03 1117.56 260.866 1125.38 269.574C1133.19 278.2 1139.25 288.373 1143.56 300.091C1147.88 311.81 1150.03 324.343 1150.03 337.689C1150.03 351.035 1147.84 363.568 1143.44 375.287C1139.13 386.924 1133.03 397.097 1125.13 405.804C1117.32 414.512 1107.96 421.389 1097.06 426.434C1086.23 431.398 1074.31 433.881 1061.29 433.881ZM1061.29 411.175C1070.97 411.175 1079.72 409.182 1087.53 405.194C1095.43 401.206 1102.14 395.876 1107.68 389.203C1113.21 382.448 1117.48 374.636 1120.49 365.765C1123.5 356.895 1125.01 347.536 1125.01 337.689C1125.01 327.598 1123.34 317.873 1120.01 308.514C1116.75 299.074 1112.15 291.099 1106.21 284.589C1100.35 278.078 1093.52 273.073 1085.7 269.574C1077.89 265.993 1069.75 264.203 1061.29 264.203C1051.61 264.203 1042.82 266.197 1034.92 270.184C1027.03 274.172 1020.31 279.543 1014.78 286.298C1009.25 292.971 1004.97 300.783 1001.96 309.735C998.952 318.605 997.447 327.923 997.447 337.689C997.447 349.082 999.115 359.255 1002.45 368.207C1005.79 377.077 1010.18 384.483 1015.63 390.423C1021.17 396.283 1027.72 401.206 1035.29 405.194C1042.94 409.182 1051.61 411.175 1061.29 411.175Z"/>
<path d="M662.559 554.16H722.617V575.278H706.87V739.218H675.62L589.561 585.776V718.222H608.604V739.218H548.545V718.222H565.635V575.278H548.057V553.916H597.862L682.334 705.893L683.311 700.034V575.278H662.559V554.16Z"/>
<path d="M939.121 739.951V702.841C936.029 709.27 932.163 714.886 927.525 719.687C922.886 724.407 917.718 728.313 912.022 731.406C906.325 734.498 900.222 736.818 893.711 738.364C887.282 739.91 880.731 740.683 874.058 740.683C862.014 740.683 850.905 738.689 840.733 734.702C830.56 730.633 821.323 724.204 813.023 715.415C804.803 706.626 798.496 696.209 794.102 684.165C789.789 672.12 787.632 659.547 787.632 646.445C787.632 633.261 789.789 620.81 794.102 609.091C798.496 597.373 804.6 587.159 812.412 578.452C820.306 569.744 829.665 562.908 840.488 557.944C851.393 552.98 863.194 550.498 875.889 550.498C887.608 550.498 897.658 552.166 906.04 555.503C914.504 558.839 921.706 562.908 927.647 567.71C933.669 572.43 938.47 576.946 942.051 581.259H953.892V602.988H927.647C922.194 593.711 914.951 586.386 905.918 581.015C896.966 575.644 886.916 573.04 875.767 573.203C866.408 573.203 857.822 575.197 850.01 579.184C842.197 583.172 835.484 588.543 829.868 595.298C824.335 602.052 820.021 609.824 816.929 618.613C813.836 627.402 812.29 636.679 812.29 646.445C812.29 657.269 813.999 667.319 817.417 676.596C820.835 685.874 825.189 693.401 830.479 699.179C835.768 704.957 842.279 709.759 850.01 713.584C857.822 717.327 866.449 719.199 875.889 719.199C891.514 719.199 904.331 715.415 914.341 707.846C924.351 700.197 931.349 688.315 935.337 672.202H883.579V651.206H961.826V739.951H939.121Z"/>
</mask>
<path d="M607.407 245.16H667.466V266.278H651.353L598.496 430.218H561.143L510.972 268.964L464.707 430.218H427.72L373.765 266.278H357.407V245.16H417.466V266.278H401.353L446.153 408.49L493.394 245.16H529.893L580.186 408.49L625.84 266.278H607.407V245.16Z" fill="#00B1BD"/>
<path d="M816.221 433.881C803.444 433.881 791.766 431.52 781.187 426.8C770.607 421.999 761.167 415.204 752.866 406.415C744.566 397.626 738.259 387.209 733.946 375.165C729.632 363.12 727.476 350.629 727.476 337.689C727.476 324.343 729.632 311.81 733.946 300.091C738.34 288.373 744.444 278.2 752.256 269.574C760.15 260.866 769.509 254.03 780.332 249.066C791.237 244.02 803.2 241.498 816.221 241.498C829.323 241.498 841.327 244.02 852.232 249.066C863.137 254.03 872.495 260.866 880.308 269.574C888.12 278.2 894.183 288.373 898.496 300.091C902.809 311.81 904.966 324.343 904.966 337.689C904.966 351.035 902.769 363.568 898.374 375.287C894.061 386.924 887.958 397.097 880.064 405.804C872.251 414.512 862.892 421.389 851.988 426.434C841.164 431.398 829.242 433.881 816.221 433.881ZM816.221 411.175C825.905 411.175 834.654 409.182 842.466 405.194C850.36 401.206 857.074 395.876 862.608 389.203C868.141 382.448 872.414 374.636 875.425 365.765C878.436 356.895 879.942 347.536 879.942 337.689C879.942 327.598 878.273 317.873 874.937 308.514C871.682 299.074 867.084 291.099 861.143 284.589C855.283 278.078 848.447 273.073 840.635 269.574C832.822 265.993 824.684 264.203 816.221 264.203C806.537 264.203 797.748 266.197 789.854 270.184C781.96 274.172 775.246 279.543 769.712 286.298C764.178 292.971 759.906 300.783 756.895 309.735C753.884 318.605 752.378 327.923 752.378 337.689C752.378 349.082 754.046 359.255 757.383 368.207C760.72 377.077 765.114 384.483 770.567 390.423C776.1 396.283 782.652 401.206 790.22 405.194C797.87 409.182 806.537 411.175 816.221 411.175Z" fill="#00B1BD"/>
<path d="M1061.29 433.881C1048.51 433.881 1036.83 431.52 1026.26 426.8C1015.68 421.999 1006.24 415.204 997.935 406.415C989.634 397.626 983.327 387.209 979.014 375.165C974.701 363.12 972.544 350.629 972.544 337.689C972.544 324.343 974.701 311.81 979.014 300.091C983.408 288.373 989.512 278.2 997.324 269.574C1005.22 260.866 1014.58 254.03 1025.4 249.066C1036.31 244.02 1048.27 241.498 1061.29 241.498C1074.39 241.498 1086.4 244.02 1097.3 249.066C1108.2 254.03 1117.56 260.866 1125.38 269.574C1133.19 278.2 1139.25 288.373 1143.56 300.091C1147.88 311.81 1150.03 324.343 1150.03 337.689C1150.03 351.035 1147.84 363.568 1143.44 375.287C1139.13 386.924 1133.03 397.097 1125.13 405.804C1117.32 414.512 1107.96 421.389 1097.06 426.434C1086.23 431.398 1074.31 433.881 1061.29 433.881ZM1061.29 411.175C1070.97 411.175 1079.72 409.182 1087.53 405.194C1095.43 401.206 1102.14 395.876 1107.68 389.203C1113.21 382.448 1117.48 374.636 1120.49 365.765C1123.5 356.895 1125.01 347.536 1125.01 337.689C1125.01 327.598 1123.34 317.873 1120.01 308.514C1116.75 299.074 1112.15 291.099 1106.21 284.589C1100.35 278.078 1093.52 273.073 1085.7 269.574C1077.89 265.993 1069.75 264.203 1061.29 264.203C1051.61 264.203 1042.82 266.197 1034.92 270.184C1027.03 274.172 1020.31 279.543 1014.78 286.298C1009.25 292.971 1004.97 300.783 1001.96 309.735C998.952 318.605 997.447 327.923 997.447 337.689C997.447 349.082 999.115 359.255 1002.45 368.207C1005.79 377.077 1010.18 384.483 1015.63 390.423C1021.17 396.283 1027.72 401.206 1035.29 405.194C1042.94 409.182 1051.61 411.175 1061.29 411.175Z" fill="#00B1BD"/>
<path d="M662.559 554.16H722.617V575.278H706.87V739.218H675.62L589.561 585.776V718.222H608.604V739.218H548.545V718.222H565.635V575.278H548.057V553.916H597.862L682.334 705.893L683.311 700.034V575.278H662.559V554.16Z" fill="#00B1BD"/>
<path d="M939.121 739.951V702.841C936.029 709.27 932.163 714.886 927.525 719.687C922.886 724.407 917.718 728.313 912.022 731.406C906.325 734.498 900.222 736.818 893.711 738.364C887.282 739.91 880.731 740.683 874.058 740.683C862.014 740.683 850.905 738.689 840.733 734.702C830.56 730.633 821.323 724.204 813.023 715.415C804.803 706.626 798.496 696.209 794.102 684.165C789.789 672.12 787.632 659.547 787.632 646.445C787.632 633.261 789.789 620.81 794.102 609.091C798.496 597.373 804.6 587.159 812.412 578.452C820.306 569.744 829.665 562.908 840.488 557.944C851.393 552.98 863.194 550.498 875.889 550.498C887.608 550.498 897.658 552.166 906.04 555.503C914.504 558.839 921.706 562.908 927.647 567.71C933.669 572.43 938.47 576.946 942.051 581.259H953.892V602.988H927.647C922.194 593.711 914.951 586.386 905.918 581.015C896.966 575.644 886.916 573.04 875.767 573.203C866.408 573.203 857.822 575.197 850.01 579.184C842.197 583.172 835.484 588.543 829.868 595.298C824.335 602.052 820.021 609.824 816.929 618.613C813.836 627.402 812.29 636.679 812.29 646.445C812.29 657.269 813.999 667.319 817.417 676.596C820.835 685.874 825.189 693.401 830.479 699.179C835.768 704.957 842.279 709.759 850.01 713.584C857.822 717.327 866.449 719.199 875.889 719.199C891.514 719.199 904.331 715.415 914.341 707.846C924.351 700.197 931.349 688.315 935.337 672.202H883.579V651.206H961.826V739.951H939.121Z" fill="#00B1BD"/>
<path d="M607.407 245.16H667.466V266.278H651.353L598.496 430.218H561.143L510.972 268.964L464.707 430.218H427.72L373.765 266.278H357.407V245.16H417.466V266.278H401.353L446.153 408.49L493.394 245.16H529.893L580.186 408.49L625.84 266.278H607.407V245.16Z" stroke="#FD2155" stroke-width="8" mask="url(#path-1-outside-1_1_2)"/>
<path d="M816.221 433.881C803.444 433.881 791.766 431.52 781.187 426.8C770.607 421.999 761.167 415.204 752.866 406.415C744.566 397.626 738.259 387.209 733.946 375.165C729.632 363.12 727.476 350.629 727.476 337.689C727.476 324.343 729.632 311.81 733.946 300.091C738.34 288.373 744.444 278.2 752.256 269.574C760.15 260.866 769.509 254.03 780.332 249.066C791.237 244.02 803.2 241.498 816.221 241.498C829.323 241.498 841.327 244.02 852.232 249.066C863.137 254.03 872.495 260.866 880.308 269.574C888.12 278.2 894.183 288.373 898.496 300.091C902.809 311.81 904.966 324.343 904.966 337.689C904.966 351.035 902.769 363.568 898.374 375.287C894.061 386.924 887.958 397.097 880.064 405.804C872.251 414.512 862.892 421.389 851.988 426.434C841.164 431.398 829.242 433.881 816.221 433.881ZM816.221 411.175C825.905 411.175 834.654 409.182 842.466 405.194C850.36 401.206 857.074 395.876 862.608 389.203C868.141 382.448 872.414 374.636 875.425 365.765C878.436 356.895 879.942 347.536 879.942 337.689C879.942 327.598 878.273 317.873 874.937 308.514C871.682 299.074 867.084 291.099 861.143 284.589C855.283 278.078 848.447 273.073 840.635 269.574C832.822 265.993 824.684 264.203 816.221 264.203C806.537 264.203 797.748 266.197 789.854 270.184C781.96 274.172 775.246 279.543 769.712 286.298C764.178 292.971 759.906 300.783 756.895 309.735C753.884 318.605 752.378 327.923 752.378 337.689C752.378 349.082 754.046 359.255 757.383 368.207C760.72 377.077 765.114 384.483 770.567 390.423C776.1 396.283 782.652 401.206 790.22 405.194C797.87 409.182 806.537 411.175 816.221 411.175Z" stroke="#FD2155" stroke-width="8" mask="url(#path-1-outside-1_1_2)"/>
<path d="M1061.29 433.881C1048.51 433.881 1036.83 431.52 1026.26 426.8C1015.68 421.999 1006.24 415.204 997.935 406.415C989.634 397.626 983.327 387.209 979.014 375.165C974.701 363.12 972.544 350.629 972.544 337.689C972.544 324.343 974.701 311.81 979.014 300.091C983.408 288.373 989.512 278.2 997.324 269.574C1005.22 260.866 1014.58 254.03 1025.4 249.066C1036.31 244.02 1048.27 241.498 1061.29 241.498C1074.39 241.498 1086.4 244.02 1097.3 249.066C1108.2 254.03 1117.56 260.866 1125.38 269.574C1133.19 278.2 1139.25 288.373 1143.56 300.091C1147.88 311.81 1150.03 324.343 1150.03 337.689C1150.03 351.035 1147.84 363.568 1143.44 375.287C1139.13 386.924 1133.03 397.097 1125.13 405.804C1117.32 414.512 1107.96 421.389 1097.06 426.434C1086.23 431.398 1074.31 433.881 1061.29 433.881ZM1061.29 411.175C1070.97 411.175 1079.72 409.182 1087.53 405.194C1095.43 401.206 1102.14 395.876 1107.68 389.203C1113.21 382.448 1117.48 374.636 1120.49 365.765C1123.5 356.895 1125.01 347.536 1125.01 337.689C1125.01 327.598 1123.34 317.873 1120.01 308.514C1116.75 299.074 1112.15 291.099 1106.21 284.589C1100.35 278.078 1093.52 273.073 1085.7 269.574C1077.89 265.993 1069.75 264.203 1061.29 264.203C1051.61 264.203 1042.82 266.197 1034.92 270.184C1027.03 274.172 1020.31 279.543 1014.78 286.298C1009.25 292.971 1004.97 300.783 1001.96 309.735C998.952 318.605 997.447 327.923 997.447 337.689C997.447 349.082 999.115 359.255 1002.45 368.207C1005.79 377.077 1010.18 384.483 1015.63 390.423C1021.17 396.283 1027.72 401.206 1035.29 405.194C1042.94 409.182 1051.61 411.175 1061.29 411.175Z" stroke="#FD2155" stroke-width="8" mask="url(#path-1-outside-1_1_2)"/>
<path d="M662.559 554.16H722.617V575.278H706.87V739.218H675.62L589.561 585.776V718.222H608.604V739.218H548.545V718.222H565.635V575.278H548.057V553.916H597.862L682.334 705.893L683.311 700.034V575.278H662.559V554.16Z" stroke="#FD2155" stroke-width="8" mask="url(#path-1-outside-1_1_2)"/>
<path d="M939.121 739.951V702.841C936.029 709.27 932.163 714.886 927.525 719.687C922.886 724.407 917.718 728.313 912.022 731.406C906.325 734.498 900.222 736.818 893.711 738.364C887.282 739.91 880.731 740.683 874.058 740.683C862.014 740.683 850.905 738.689 840.733 734.702C830.56 730.633 821.323 724.204 813.023 715.415C804.803 706.626 798.496 696.209 794.102 684.165C789.789 672.12 787.632 659.547 787.632 646.445C787.632 633.261 789.789 620.81 794.102 609.091C798.496 597.373 804.6 587.159 812.412 578.452C820.306 569.744 829.665 562.908 840.488 557.944C851.393 552.98 863.194 550.498 875.889 550.498C887.608 550.498 897.658 552.166 906.04 555.503C914.504 558.839 921.706 562.908 927.647 567.71C933.669 572.43 938.47 576.946 942.051 581.259H953.892V602.988H927.647C922.194 593.711 914.951 586.386 905.918 581.015C896.966 575.644 886.916 573.04 875.767 573.203C866.408 573.203 857.822 575.197 850.01 579.184C842.197 583.172 835.484 588.543 829.868 595.298C824.335 602.052 820.021 609.824 816.929 618.613C813.836 627.402 812.29 636.679 812.29 646.445C812.29 657.269 813.999 667.319 817.417 676.596C820.835 685.874 825.189 693.401 830.479 699.179C835.768 704.957 842.279 709.759 850.01 713.584C857.822 717.327 866.449 719.199 875.889 719.199C891.514 719.199 904.331 715.415 914.341 707.846C924.351 700.197 931.349 688.315 935.337 672.202H883.579V651.206H961.826V739.951H939.121Z" stroke="#FD2155" stroke-width="8" mask="url(#path-1-outside-1_1_2)"/>
</g>
<g id="layer-1">
<path id="Vector" d="M873.483 541.367C902 541.367 928.71 551.506 947.089 572.009H961.848V605.194M871.971 750.709C816.137 750.709 777.741 706.411 777.741 646.136M700.005 543.097H733.049V584.723H717.632V625.836M674.463 653.218V674.525L629.456 593.425M555.751 653.218V706.005H539.306V746.028H555.751M598.405 653.218V619.669L647.226 706.005M370.005 233.218H427.402V275.084H413.616L443.485 370.206M524.821 233.218H537.332L580.005 378.018L588.236 353.218M675.546 252.567V275.084H658.084L624.079 383.218M522.461 333.275L512.051 300.187L480.078 413.951M920.109 683.218H874.433V640.168H953.804M917.716 337.35C917.716 397.625 872.454 446.487 816.62 446.487C760.786 446.487 715.524 397.625 715.524 337.35C715.524 277.075 760.786 228.213 816.62 228.213C872.454 228.213 917.716 277.075 917.716 337.35ZM1162.14 337.35C1162.14 397.625 1116.87 446.487 1061.04 446.487C1005.21 446.487 959.946 397.625 959.946 337.35C959.946 277.075 1005.21 228.213 1061.04 228.213C1116.87 228.213 1162.14 277.075 1162.14 337.35ZM872.223 336.431C872.223 372.85 847.102 402.373 816.114 402.373C785.126 402.373 760.005 372.85 760.005 336.431C760.005 300.012 785.126 270.489 816.114 270.489C847.102 270.489 872.223 300.012 872.223 336.431ZM1117.15 336.431C1117.15 372.85 1092.03 402.373 1061.04 402.373C1030.05 402.373 1004.93 372.85 1004.93 336.431C1004.93 300.012 1030.05 270.489 1061.04 270.489C1092.03 270.489 1117.15 300.012 1117.15 336.431Z" stroke="#736FBD" stroke-width="3"/>
</g>
<g id="layer-2">
<path id="Vector_2" d="M968.764 564.901V563.428V563.401H968.713H967.264H951.522C932.118 544.474 906.031 532.982 877.343 532.982C817.325 532.982 768.777 583.235 768.777 646.649C768.777 678.277 778.84 707.596 797.491 728.5C816.169 749.434 843.386 761.839 877.437 759.7C897.756 758.424 913.217 750.033 928.243 741.14V753.044V754.544H929.743H976.645H978.145V753.044V635.79V634.29H976.645H869.24H867.74V635.79V688.32V689.82H869.24H909.407L906.242 693.211C897.776 700.411 887.373 704.635 876.144 704.635C848.092 704.635 824.983 678.125 824.983 644.932C824.983 611.739 848.092 585.229 876.144 585.229C896.379 585.229 913.022 596.29 921.323 616.199L921.708 617.122H922.708H967.264H968.764V615.622V564.901ZM434.734 226.947V225.447H433.234H344.379H342.879V226.947V280.111V281.611H344.379H363.371L416.939 443.689L417.279 444.718H418.363H481.193H482.358L482.647 443.59L512.912 325.118L548.569 443.651L548.89 444.718H550.005H610.005H611.1L611.434 443.676L663.344 281.611H681.954H683.454V280.111V226.947V225.447H681.954H593.099H591.599V226.947V280.111V281.611H593.099H605.115L580.134 353.26L543.233 226.527L542.919 225.447L541.793 225.447L485.655 225.447L484.534 225.447L484.216 226.522L446.211 355.238L423.373 281.611H433.234H434.734V280.111V226.947ZM739.41 538.718V537.218H737.91H650.571H649.071V538.718V590.546V592.046H650.571H668.505V650.129L604.847 537.978L604.416 537.218H603.543H533.959H532.459V538.718V590.546V592.046H533.959H548.505V699.899H533.959H532.459V701.399V752.746V754.246H533.959H620.339H621.839V752.746V701.399V699.899H620.339H605.043V645.473L668.713 753.508L669.148 754.246H670.005H722.554H724.054V752.746V592.046H737.91H739.41V590.546V538.718ZM1061.04 453.85C1120.79 453.85 1169.04 401.581 1169.04 337.35C1169.04 273.119 1120.79 220.85 1061.04 220.85C1001.29 220.85 953.041 273.119 953.041 337.35C953.041 401.581 1001.29 453.85 1061.04 453.85ZM816.114 453.85C875.867 453.85 924.114 401.581 924.114 337.35C924.114 273.119 875.867 220.85 816.114 220.85C756.361 220.85 708.114 273.119 708.114 337.35C708.114 401.581 756.361 453.85 816.114 453.85Z" stroke="#9E489B" stroke-width="3"/>
</g>
<g id="layer-3">
<g id="Vector_3">
<path d="M856.62 336.431C856.62 364.045 838.711 386.431 816.62 386.431C794.529 386.431 776.62 364.045 776.62 336.431C776.62 308.817 794.529 286.431 816.62 286.431C838.711 286.431 856.62 308.817 856.62 336.431Z" stroke="#FD2155" stroke-width="6"/>
<path d="M1101.04 337.35C1101.04 364.964 1083.13 387.35 1061.04 387.35C1038.95 387.35 1021.04 364.964 1021.04 337.35C1021.04 309.736 1038.95 287.35 1061.04 287.35C1083.13 287.35 1101.04 309.736 1101.04 337.35Z" stroke="#FD2155" stroke-width="6"/>
<path d="M931.114 337.35C931.114 406.386 879.627 462.35 816.114 462.35C752.601 462.35 701.114 406.386 701.114 337.35C701.114 268.314 752.601 212.35 816.114 212.35C879.627 212.35 931.114 268.314 931.114 337.35Z" stroke="#FD2155" stroke-width="6"/>
<path d="M1176.04 337.35C1176.04 406.386 1124.55 462.35 1061.04 462.35C997.528 462.35 946.041 406.386 946.041 337.35C946.041 268.314 997.528 212.35 1061.04 212.35C1124.55 212.35 1176.04 268.314 1176.04 337.35Z" stroke="#FD2155" stroke-width="6"/>
<path d="M874.724 598.698C853.238 598.698 836.702 616.149 836.702 642.1C836.702 662.185 847.134 683.631 861.811 690.355V623.219L910.005 623.902C903.707 608.203 890.136 598.698 874.724 598.698Z" stroke="#FD2155" stroke-width="6"/>
<path d="M755.744 644.112C755.744 714.462 797.783 774.126 868.644 769.386C890.728 767.908 904.025 766.341 920.637 755.808V769.121L991.964 769.386V623.218H983.051V547.763H952.92C932.692 526.513 903.333 519.784 873.289 519.784C810.937 519.784 755.744 573.761 755.744 644.112Z" stroke="#FD2155" stroke-width="6"/>
<path d="M444.286 213.456H335.959V286.63H356.763L413.438 453.066H490.005L514.591 353.218L543.287 453.066H618.613L670.005 286.63H689.636V213.456H584.178V286.63H593.504L580.005 323.218L548.308 213.456H478.003L444.286 327.522L434.242 286.63H444.286V213.456Z" stroke="#FD2155" stroke-width="6"/>
<path d="M750.416 526.272H640.005V569.285L616.461 526.272H520.005V600.164H538.982V691.242H520.005V765.851H630.809V709.177L662.375 765.851H734.114V600.164H750.416V526.272Z" stroke="#FD2155" stroke-width="6"/>
</g>
</g>
<g id="layer-4">
<g id="Vector_4">
<path d="M856.62 336.431C856.62 364.045 838.711 386.431 816.62 386.431C794.529 386.431 776.62 364.045 776.62 336.431C776.62 308.817 794.529 286.431 816.62 286.431C838.711 286.431 856.62 308.817 856.62 336.431Z" stroke="white" stroke-width="1.5"/>
<path d="M1101.04 337.35C1101.04 364.964 1083.13 387.35 1061.04 387.35C1038.95 387.35 1021.04 364.964 1021.04 337.35C1021.04 309.736 1038.95 287.35 1061.04 287.35C1083.13 287.35 1101.04 309.736 1101.04 337.35Z" stroke="white" stroke-width="1.5"/>
<path d="M931.114 337.35C931.114 406.386 879.627 462.35 816.114 462.35C752.601 462.35 701.114 406.386 701.114 337.35C701.114 268.314 752.601 212.35 816.114 212.35C879.627 212.35 931.114 268.314 931.114 337.35Z" stroke="white" stroke-width="1.5"/>
<path d="M1176.04 337.35C1176.04 406.386 1124.55 462.35 1061.04 462.35C997.528 462.35 946.041 406.386 946.041 337.35C946.041 268.314 997.528 212.35 1061.04 212.35C1124.55 212.35 1176.04 268.314 1176.04 337.35Z" stroke="white" stroke-width="1.5"/>
<path d="M874.724 598.698C853.238 598.698 836.702 616.149 836.702 642.1C836.702 662.185 847.134 683.631 861.811 690.355V623.219L910.005 623.902C903.707 608.203 890.136 598.698 874.724 598.698Z" stroke="white" stroke-width="1.5"/>
<path d="M755.744 644.112C755.744 714.462 797.783 774.126 868.644 769.386C890.728 767.908 904.025 766.341 920.637 755.808V769.121L991.964 769.386V623.218H983.051V547.763H952.92C932.692 526.513 903.333 519.784 873.289 519.784C810.937 519.784 755.744 573.761 755.744 644.112Z" stroke="white" stroke-width="1.5"/>
<path d="M444.286 213.456H335.959V286.63H356.763L413.438 453.066H490.005L514.591 353.218L543.287 453.066H618.613L670.005 286.63H689.636V213.456H584.178V286.63H593.504L580.005 323.218L548.308 213.456H478.003L444.286 327.522L434.242 286.63H444.286V213.456Z" stroke="white" stroke-width="1.5"/>
<path d="M750.416 526.272H640.005V569.285L616.461 526.272H520.005V600.164H538.982V691.242H520.005V765.851H630.809V709.177L662.375 765.851H734.114V600.164H750.416V526.272Z" stroke="white" stroke-width="1.5"/>
</g>
</g>
</g>
</svg>
